<?xml version="1.0" encoding="iso-8859-1"?>
<!-- Generator: Adobe Illustrator 19.0.0, SVG Export Plug-In . SVG Version: 6.00 Build 0)  -->
<svg width="50" height="50" viewBox="0 0 50 50" fill="none" xmlns="http://www.w3.org/2000/svg">
<circle cx="25" cy="25" r="25" fill="#75D0D6"/>
<path d="M34.3672 34.3926C33.5 35.6348 32.2871 36.5664 30.7285 37.1875C29.1816 37.7969 27.377 38.1016 25.3145 38.1016C23.2285 38.1016 21.377 37.6152 19.7598 36.6426C18.1426 35.6582 16.8887 34.2637 15.998 32.459C15.1191 30.6543 14.668 28.5625 14.6445 26.1836V23.9512C14.6445 20.0957 15.541 17.1074 17.334 14.9863C19.1387 12.8652 21.6699 11.8047 24.9277 11.8047C27.5996 11.8047 29.75 12.4902 31.3789 13.8613C33.0078 15.2207 34.0039 17.1543 34.3672 19.6621H30.9922C30.3594 16.2754 28.3438 14.582 24.9453 14.582C22.6836 14.582 20.9668 15.3789 19.7949 16.9727C18.6348 18.5547 18.0488 20.8516 18.0371 23.8633V25.9551C18.0371 28.8262 18.6934 31.1113 20.0059 32.8105C21.3184 34.498 23.0938 35.3418 25.332 35.3418C26.5977 35.3418 27.7051 35.2012 28.6543 34.9199C29.6035 34.6387 30.3887 34.1641 31.0098 33.4961V27.748H25.0859V25.0059H34.3672V34.3926Z" fill="white"/>
</svg>
